<svg xmlns="http://www.w3.org/2000/svg" width="110.81" height="60.062" viewBox="0 0 110.81 60.062">
  <metadata><?xpacket begin="﻿" id="W5M0MpCehiHzreSzNTczkc9d"?>
<x:xmpmeta xmlns:x="adobe:ns:meta/" x:xmptk="Adobe XMP Core 5.6-c138 79.159824, 2016/09/14-01:09:01        ">
   <rdf:RDF xmlns:rdf="http://www.w3.org/1999/02/22-rdf-syntax-ns#">
      <rdf:Description rdf:about=""/>
   </rdf:RDF>
</x:xmpmeta>
                                                                                                    
                                                                                                    
                                                                                                    
                                                                                                    
                                                                                                    
                                                                                                    
                                                                                                    
                                                                                                    
                                                                                                    
                                                                                                    
                                                                                                    
                                                                                                    
                                                                                                    
                                                                                                    
                                                                                                    
                                                                                                    
                                                                                                    
                                                                                                    
                                                                                                    
                                                                                                    
                           
<?xpacket end="w"?></metadata>
<defs>
    <style>
      .cls-1 {
        fill: #fff;
        fill-rule: evenodd;
      }
    </style>
  </defs>
  <path id="Фигура_4" data-name="Фигура 4" class="cls-1" d="M1223.58,543.022c-1.81-.237-3.28.514-3.28,1.679s1.47,1.323,3.28,1.561,3.28,0.461,3.28-.7S1225.39,543.259,1223.58,543.022Zm21.49-14.933c-1.81-.238-3.28.514-3.28,1.678s1.47,1.324,3.28,1.561,3.28,0.462,3.28-.7S1246.88,528.326,1245.07,528.089Zm8.19,21.006c-1.82-.237-3.29.514-3.29,1.678s1.47,1.324,3.29,1.561,3.28,0.462,3.28-.7S1255.07,549.332,1253.26,549.1Zm28.8-6.375c1.81,0.237,3.28.462,3.28-.7s-1.47-2.3-3.28-2.537-3.29.514-3.29,1.678S1280.24,542.483,1282.06,542.72Zm-0.62,19.459c1.81,0.237,3.28.462,3.28-.7s-1.47-2.3-3.28-2.538-3.29.515-3.29,1.679S1279.62,561.942,1281.44,562.179Zm19.38-34.416c-9.58-7.4-22.29-12.452-35.8-14.219-25.2-3.3-39.6,3.543-49.19,11.264a29.845,29.845,0,0,0-2.36,1.871c-5.43,4.77-8.29,10.767-8.29,17.343,0,18.635,22.62,21.581,48.81,24.993l4.34,0.567c4.95,0.65,9.64,1.265,14.04,1.736a147.906,147.906,0,0,0,18.61,1.442c9.57,0,15.66-1.69,19.66-5.2,3.6-3.173,5.36-7.768,5.36-14.047C1316,544.468,1310.61,535.323,1300.82,527.763Zm-46.37,37.677c-25.52-3.324-45.67-5.95-45.67-21.418a18.665,18.665,0,0,1,5.24-12.849c1.23-1.16,2.55-2.333,3.98-3.486,7-5.05,17.07-7.784,28.4-7.784a75.437,75.437,0,0,1,9.76.647c26.38,3.449,47.85,19.775,47.85,36.393,0,3.579-1.01,6.2-3.07,8.017-4.88,4.282-15.35,4.147-28.32,2.756a0.235,0.235,0,0,1-.04,0h-0.01c-4.35-.467-8.98-1.074-13.78-1.7Zm53.81-.591a14.216,14.216,0,0,1-4.81,2.682c2.75-2.5,4.16-6.056,4.16-10.588,0-9.045-5.39-18.189-15.18-25.749-9.58-7.4-22.3-12.453-35.8-14.219-2.35-.306,2.44-0.572,7.92.144,26.38,3.45,47.85,19.775,47.85,36.393C1312.4,558.693,1311.04,562.4,1308.26,564.849Z" transform="translate(-1205.19 -512.688)"/>
</svg>
