<svg xmlns="http://www.w3.org/2000/svg" width="101.84" height="49.875" viewBox="0 0 101.84 49.875">
  <metadata><?xpacket begin="﻿" id="W5M0MpCehiHzreSzNTczkc9d"?>
<x:xmpmeta xmlns:x="adobe:ns:meta/" x:xmptk="Adobe XMP Core 5.6-c138 79.159824, 2016/09/14-01:09:01        ">
   <rdf:RDF xmlns:rdf="http://www.w3.org/1999/02/22-rdf-syntax-ns#">
      <rdf:Description rdf:about=""/>
   </rdf:RDF>
</x:xmpmeta>
                                                                                                    
                                                                                                    
                                                                                                    
                                                                                                    
                                                                                                    
                                                                                                    
                                                                                                    
                                                                                                    
                                                                                                    
                                                                                                    
                                                                                                    
                                                                                                    
                                                                                                    
                                                                                                    
                                                                                                    
                                                                                                    
                                                                                                    
                                                                                                    
                                                                                                    
                                                                                                    
                           
<?xpacket end="w"?></metadata>
<defs>
    <style>
      .cls-1 {
        fill: #fff;
        fill-rule: evenodd;
      }
    </style>
  </defs>
  <path id="Фигура_5" data-name="Фигура 5" class="cls-1" d="M1511.2,553.181a7.139,7.139,0,0,0-2.08-5.042,3.633,3.633,0,0,1-.01-5.441,7.135,7.135,0,0,0,0-10.091,3.6,3.6,0,0,1,0-5.4,7.518,7.518,0,0,0,1.97-3.664,1.812,1.812,0,0,0-.53-1.635,1.791,1.791,0,0,0-1.65-.45c-9.47,2.233-16.84,8.148-20.08,15.518-4.21-9.617-15.41-16.512-28.53-16.512s-24.33,6.9-28.54,16.512c-3.24-7.37-10.6-13.285-20.07-15.518a1.805,1.805,0,0,0-2.19,2.085,7.518,7.518,0,0,0,1.97,3.664,3.584,3.584,0,0,1,0,5.4,7.135,7.135,0,0,0,0,10.091,3.614,3.614,0,0,1-.01,5.441,7.141,7.141,0,0,0,.01,10.086,3.6,3.6,0,0,1,.01,5.412,7.519,7.519,0,0,0-1.95,3.632,1.783,1.783,0,0,0,.52,1.637,1.819,1.819,0,0,0,1.67.449c9.45-2.251,16.8-8.167,20.04-15.523,4.21,9.621,15.41,16.519,28.54,16.519s24.33-6.9,28.54-16.519c3.24,7.356,10.59,13.272,20.04,15.523a1.824,1.824,0,0,0,.42.049,1.805,1.805,0,0,0,1.77-2.135,7.519,7.519,0,0,0-1.95-3.632,3.611,3.611,0,0,1,0-5.412A7.1,7.1,0,0,0,1511.2,553.181Zm-95.82,11.225a6.611,6.611,0,0,0,.91-3.473,7.141,7.141,0,0,0-2.09-5.045,3.6,3.6,0,0,1,0-5.416,7.161,7.161,0,0,0,0-10.112,3.595,3.595,0,0,1,0-5.415,7.141,7.141,0,0,0,2.09-5.045,6.614,6.614,0,0,0-.94-3.51c8.79,3.585,14.6,10.937,14.6,19.015C1429.95,553.458,1424.15,560.8,1415.38,564.406Zm44.91,2.346c-14.74,0-26.73-9.576-26.73-21.347s11.99-21.347,26.73-21.347,26.72,9.576,26.72,21.347S1475.02,566.752,1460.29,566.752Zm46.09-16.28a3.615,3.615,0,0,1,0,5.416,7.1,7.1,0,0,0-2.1,5.045,6.608,6.608,0,0,0,.92,3.473c-8.77-3.6-14.58-10.948-14.58-19,0-8.078,5.82-15.43,14.6-19.015a6.614,6.614,0,0,0-.94,3.51,7.1,7.1,0,0,0,2.1,5.045,3.6,3.6,0,0,1-.01,5.415A7.148,7.148,0,0,0,1506.38,550.472Zm-32.2-18.378a5.6,5.6,0,1,0,5.61,5.595A5.6,5.6,0,0,0,1474.18,532.094ZM1447.02,546a5.6,5.6,0,1,0,5.61,5.6A5.6,5.6,0,0,0,1447.02,546Zm6.77-15.29a3.489,3.489,0,1,0,3.5,3.489A3.488,3.488,0,0,0,1453.79,530.712Zm13.87,23.815a3.489,3.489,0,1,0,3.5,3.489A3.495,3.495,0,0,0,1467.66,554.527Z" transform="translate(-1409.38 -520.469)"/>
</svg>
