<svg xmlns="http://www.w3.org/2000/svg" width="97.562" height="67.844" viewBox="0 0 97.562 67.844">
  <metadata><?xpacket begin="﻿" id="W5M0MpCehiHzreSzNTczkc9d"?>
<x:xmpmeta xmlns:x="adobe:ns:meta/" x:xmptk="Adobe XMP Core 5.6-c138 79.159824, 2016/09/14-01:09:01        ">
   <rdf:RDF xmlns:rdf="http://www.w3.org/1999/02/22-rdf-syntax-ns#">
      <rdf:Description rdf:about=""/>
   </rdf:RDF>
</x:xmpmeta>
                                                                                                    
                                                                                                    
                                                                                                    
                                                                                                    
                                                                                                    
                                                                                                    
                                                                                                    
                                                                                                    
                                                                                                    
                                                                                                    
                                                                                                    
                                                                                                    
                                                                                                    
                                                                                                    
                                                                                                    
                                                                                                    
                                                                                                    
                                                                                                    
                                                                                                    
                                                                                                    
                           
<?xpacket end="w"?></metadata>
<defs>
    <style>
      .cls-1 {
        fill: #fff;
        fill-rule: evenodd;
      }
    </style>
  </defs>
  <path id="Фигура_2" data-name="Фигура 2" class="cls-1" d="M908.069,557.043a1.877,1.877,0,0,0-.054-0.185,125.008,125.008,0,0,1-3.421-26.7c-0.055-1.446-.1-2.587-0.172-3.4-0.06-.672-0.21-2.315-1.486-2.724-0.7-.459-1.823-1.1-3.619-2.129-2.6-1.489-5.751-3.267-8.639-4.878-13.03-7.269-13.668-7.269-14.285-7.269a1.792,1.792,0,0,0-1.034.326c-0.213.11-.7,0.345-1.17,0.575-2.44,1.185-7.334,3.564-11.363,6.029-5.007-2.608-10.994-6.121-18.262-10.713a9.486,9.486,0,0,0-10.9.583c-4.288,3.362-10.737,6.707-20.3,10.527a1.806,1.806,0,0,0-.949.878c-3.453,7.017-1.364,25.706.252,31.8a3.976,3.976,0,0,0,1.009,1.783c2.547,2.571,10.228,6.93,22.83,12.957a5.744,5.744,0,0,0,6.315-.847,28.228,28.228,0,0,1,10.261-5.177c1.38,0.534,7.063,3.581,11.673,6.051,5.242,2.81,10.663,5.716,14.021,7.316a5.481,5.481,0,0,0,5.345-.367c4.332-2.852,13.41-7.462,18.834-10.217,1.259-.639,2.311-1.174,3.046-1.555C907.348,559,908.407,558.454,908.069,557.043ZM875.763,513.9c0.276-.134.532-0.258,0.764-0.377,3.088,1.406,16.369,8.811,22.147,12.148-5.1,2.589-13.488,8.268-19.2,12.265-3.383-1.108-16.436-5.771-22.432-13.5,1.459-.875,2.639-1.589,3.4-2.048,1.039-.629,1.894-1.151,2.489-1.517,0.319-.2.606-0.375,0.855-0.554,0.031-.017.064-0.025,0.093-0.043A128.606,128.606,0,0,1,875.763,513.9Zm-39.874-4.506a5.879,5.879,0,0,1,6.751-.373c6.473,4.091,11.942,7.329,16.639,9.86-5.209,3.163-16.726,10.049-21.1,12.3-5.293-6.217-13.935-9.88-19.221-12.12l-0.454-.192C826.349,515.54,831.934,512.493,835.889,509.392ZM816.241,549a0.388,0.388,0,0,1-.085-0.168c-1.418-5.35-3.077-20.515-1.134-27.546,0.71,0.325,1.556.684,2.528,1.1,5.144,2.18,13.659,5.8,18.316,11.685-1.2,6.473-.207,15.951.459,22.295,0.156,1.489.325,3.1,0.407,4.24C821.782,553.39,817.474,550.244,816.241,549Zm24.193,11.953c-0.021.019-.046,0.033-0.068,0.051-0.05-1.094-.209-2.658-0.457-5.019-0.649-6.188-1.619-15.467-.474-21.4,2.237-1.123,6.6-3.6,13.01-7.4-3.6,8.388-2.769,22.378-1.475,28.143A31.062,31.062,0,0,0,840.434,560.953Zm14.177-5.747c-1.2-3.887-2.263-18.875,1.178-26.7,6.911,7.29,18.586,11.551,22.319,12.779-0.208,2.323-.642,7.639-0.792,13.052-0.179,6.493.094,10.521,0.625,13.067-3.2-1.622-7.393-3.868-11.479-6.058C859.045,557.369,856.053,555.808,854.611,555.206Zm46.719,2.833c-5.491,2.789-14.682,7.458-19.184,10.421-0.023.015-.049,0.021-0.073,0.036-1.629-2.068-1.476-15.825-.295-27.773,7.408-5.167,15.532-10.424,19.143-12.2,0.025,0.554.048,1.165,0.071,1.771a130.055,130.055,0,0,0,3.237,26.272C903.477,556.949,902.421,557.485,901.33,558.039Z" transform="translate(-810.563 -504.531)"/>
</svg>
