<svg xmlns="http://www.w3.org/2000/svg" width="102.281" height="84.469" viewBox="0 0 102.281 84.469">
  <metadata><?xpacket begin="﻿" id="W5M0MpCehiHzreSzNTczkc9d"?>
<x:xmpmeta xmlns:x="adobe:ns:meta/" x:xmptk="Adobe XMP Core 5.6-c138 79.159824, 2016/09/14-01:09:01        ">
   <rdf:RDF xmlns:rdf="http://www.w3.org/1999/02/22-rdf-syntax-ns#">
      <rdf:Description rdf:about=""/>
   </rdf:RDF>
</x:xmpmeta>
                                                                                                    
                                                                                                    
                                                                                                    
                                                                                                    
                                                                                                    
                                                                                                    
                                                                                                    
                                                                                                    
                                                                                                    
                                                                                                    
                                                                                                    
                                                                                                    
                                                                                                    
                                                                                                    
                                                                                                    
                                                                                                    
                                                                                                    
                                                                                                    
                                                                                                    
                                                                                                    
                           
<?xpacket end="w"?></metadata>
<defs>
    <style>
      .cls-1 {
        fill: #fff;
        fill-rule: evenodd;
      }
    </style>
  </defs>
  <path id="Фигура_1" data-name="Фигура 1" class="cls-1" d="M709.218,549.214a1.793,1.793,0,0,0,.04-1.4c0-.006,0-0.012,0-0.017l-8.417-22.653s0-.009,0-0.013l-2.142-5.766a0.049,0.049,0,0,1,0-.011l-8.429-22.683a1.794,1.794,0,0,0-.161-0.333c-0.021-.033-0.047-0.06-0.069-0.092a1.846,1.846,0,0,0-.144-0.186,1.61,1.61,0,0,0-.131-0.117c-0.044-.039-0.083-0.08-0.131-0.115a1.834,1.834,0,0,0-.29-0.17,0.14,0.14,0,0,0-.017-0.009c-0.01-.005-0.02-0.006-0.03-0.011a1.728,1.728,0,0,0-.3-0.1,1.678,1.678,0,0,0-.171-0.025c-0.059-.008-0.118-0.02-0.178-0.023a1.843,1.843,0,0,0-.2.011c-0.052,0-.1,0-0.155.011a1.806,1.806,0,0,0-.321.084l-0.022,0-79.653,29.655a1.839,1.839,0,0,0-.321.158,1.431,1.431,0,0,0-.124.093,1.642,1.642,0,0,0-.155.12,1.621,1.621,0,0,0-.13.145c-0.035.04-.072,0.075-0.1,0.118a1.826,1.826,0,0,0-.192.342,1.887,1.887,0,0,0-.1.282c-0.008.03-.009,0.062-0.015,0.093a1.932,1.932,0,0,0-.034.237c0,0.039,0,.078,0,0.118a1.57,1.57,0,0,0,.012.217c0,0.041.015,0.082,0.023,0.123a1.822,1.822,0,0,0,.056.214c0.006,0.019.008,0.039,0.015,0.059l19,51.138c0.01,0.027.025,0.051,0.036,0.077a1.787,1.787,0,0,0,.639.815,1.8,1.8,0,0,0,2,.037l21.993-8.188a1.793,1.793,0,0,0,.707-0.263l5.072-1.888a1.816,1.816,0,0,0,.706-0.263l21.994-8.189a1.814,1.814,0,0,0,.706-0.262l5.071-1.888a1.82,1.82,0,0,0,.707-0.263l21.993-8.189A1.8,1.8,0,0,0,709.218,549.214Zm-20.863,4.439,4.545-9.924,9.918,4.54Zm-28.477,10.6,4.544-9.924,9.919,4.54Zm-28.478,10.6,4.545-9.923,9.918,4.539Zm-12.107-25.144,6.071-13.257,16.252,7.438-7.447,16.261-13.249-6.063Zm8.865-28.014-4.57,9.978-9.973-4.564Zm28.477-10.6-4.569,9.978-9.973-4.564Zm28.478-10.6-4.57,9.978-9.973-4.564Zm12.083,25.2-6.072,13.257-16.252-7.438,7.447-16.261,13.25,6.064Zm1.775,4.778,5.4,14.543-9.973-4.564Zm-15.151-18.5L688.39,502l5.4,14.542Zm-18.028-4.285,13.25,6.064L671.6,530.013l-16.252-7.438,6.071-13.257Zm4.3,25.6-7.447,16.261L646.4,542.115l7.446-16.261Zm-32.78-15,13.25,6.064-7.446,16.261-16.253-7.438,6.071-13.257Zm-15.227,16.666-4.57,9.978-5.4-14.542Zm10.581,28.478-4.569,9.978-5.4-14.542Zm17.973,4.26-13.195-6.039,7.447-16.261,16.252,7.438-6.045,13.2Zm28.478-10.6-13.2-6.039,7.447-16.261,16.252,7.438-6.046,13.2Z" transform="translate(-607.094 -495.469)"/>
</svg>
