<svg xmlns="http://www.w3.org/2000/svg" width="104.469" height="91.656" viewBox="0 0 104.469 91.656">
  <metadata><?xpacket begin="﻿" id="W5M0MpCehiHzreSzNTczkc9d"?>
<x:xmpmeta xmlns:x="adobe:ns:meta/" x:xmptk="Adobe XMP Core 5.6-c138 79.159824, 2016/09/14-01:09:01        ">
   <rdf:RDF xmlns:rdf="http://www.w3.org/1999/02/22-rdf-syntax-ns#">
      <rdf:Description rdf:about=""/>
   </rdf:RDF>
</x:xmpmeta>
                                                                                                    
                                                                                                    
                                                                                                    
                                                                                                    
                                                                                                    
                                                                                                    
                                                                                                    
                                                                                                    
                                                                                                    
                                                                                                    
                                                                                                    
                                                                                                    
                                                                                                    
                                                                                                    
                                                                                                    
                                                                                                    
                                                                                                    
                                                                                                    
                                                                                                    
                                                                                                    
                           
<?xpacket end="w"?></metadata>
<defs>
    <style>
      .cls-1 {
        fill: #fff;
        fill-rule: evenodd;
      }
    </style>
  </defs>
  <path id="Icon" class="cls-1" d="M491.92,533.556a1.967,1.967,0,0,0-2.756.439,1.989,1.989,0,0,0,.436,2.77,1.969,1.969,0,0,0,2.757-.439A1.99,1.99,0,0,0,491.92,533.556Zm4.354,8.188a1.982,1.982,0,1,0,2.487,1.273A1.984,1.984,0,0,0,496.274,541.744Zm1.219,10.468a1.982,1.982,0,1,0,1.268,2.5A1.972,1.972,0,0,0,497.493,552.212Zm-7.893,8.751a1.987,1.987,0,0,0-.436,2.769,1.966,1.966,0,0,0,2.756.439,1.99,1.99,0,0,0,.437-2.77A1.968,1.968,0,0,0,489.6,560.963Zm-8.748,2.856a1.983,1.983,0,1,0,1.973,1.983A1.979,1.979,0,0,0,480.852,563.819Zm-8.749-2.856a1.966,1.966,0,0,0-2.756.438,1.989,1.989,0,0,0,.437,2.77,1.967,1.967,0,0,0,2.756-.439A1.988,1.988,0,0,0,472.1,560.963Zm-7.893-8.751a1.982,1.982,0,1,0,2.487,1.273A1.985,1.985,0,0,0,464.21,552.212Zm1.22-10.468a1.982,1.982,0,1,0,1.267,2.5A1.971,1.971,0,0,0,465.43,541.744Zm4.354-8.188a1.989,1.989,0,0,0-.437,2.77,1.968,1.968,0,0,0,2.756.439,1.989,1.989,0,0,0,.437-2.77A1.968,1.968,0,0,0,469.784,533.556Zm11.068-3.613a1.983,1.983,0,1,0,1.973,1.983A1.979,1.979,0,0,0,480.852,529.943Zm35.625,18.921a10.1,10.1,0,0,0-4.5-8.38,10.025,10.025,0,0,0-8.342-14.514,10.116,10.116,0,0,0-4.967-8.11,10,10,0,0,0-9.475-.27,9.942,9.942,0,0,0-16.676,0,9.992,9.992,0,0,0-9.478.268,10.108,10.108,0,0,0-4.971,8.109,10.025,10.025,0,0,0-8.337,14.513,10.051,10.051,0,0,0,0,16.76,10.025,10.025,0,0,0,8.337,14.513,10.114,10.114,0,0,0,4.973,8.111,9.993,9.993,0,0,0,9.476.266,9.942,9.942,0,0,0,16.676,0,10.01,10.01,0,0,0,9.479-.272,10.115,10.115,0,0,0,4.963-8.109,10.022,10.022,0,0,0,8.339-14.517A10.083,10.083,0,0,0,516.477,548.864Zm-7.714,5.993a1.809,1.809,0,0,0-.756,2.835,6.413,6.413,0,0,1-5.967,10.391,1.8,1.8,0,0,0-2.062,2.073,6.469,6.469,0,0,1-3.107,6.586,6.4,6.4,0,0,1-7.234-.587,1.792,1.792,0,0,0-2.816.76,6.371,6.371,0,0,1-11.937-.007,1.791,1.791,0,0,0-2.818-.757,6.387,6.387,0,0,1-7.229.592,6.464,6.464,0,0,1-3.115-6.587,1.812,1.812,0,0,0-.5-1.567,1.792,1.792,0,0,0-1.56-.506,6.413,6.413,0,0,1-5.966-10.387,1.809,1.809,0,0,0-.755-2.832,6.429,6.429,0,0,1,0-12,1.809,1.809,0,0,0,.755-2.832,6.414,6.414,0,0,1,5.966-10.388,1.784,1.784,0,0,0,1.559-.5,1.812,1.812,0,0,0,.5-1.568,6.461,6.461,0,0,1,3.113-6.585,6.386,6.386,0,0,1,7.231.59,1.791,1.791,0,0,0,2.818-.758,6.371,6.371,0,0,1,11.937-.006,1.791,1.791,0,0,0,2.816.759,6.394,6.394,0,0,1,7.23-.588,6.47,6.47,0,0,1,3.111,6.588,1.8,1.8,0,0,0,2.062,2.072,6.414,6.414,0,0,1,5.972,10.388,1.809,1.809,0,0,0,.753,2.832A6.423,6.423,0,0,1,508.763,554.857ZM453.741,498.48a6.469,6.469,0,0,1,.8.984,1.791,1.791,0,0,0,2.988,0,6.53,6.53,0,0,1,.8-0.984,6.372,6.372,0,0,1,9.03,0,6.53,6.53,0,0,1,.8.984,1.791,1.791,0,0,0,2.988,0,6.469,6.469,0,0,1,.8-0.984,6.372,6.372,0,0,1,9.03,0,6.446,6.446,0,0,1,0,9.073,1.811,1.811,0,0,0,0,2.553,1.79,1.79,0,0,0,2.539,0,10,10,0,0,0-13.864-14.416,9.954,9.954,0,0,0-13.62,0,9.955,9.955,0,0,0-13.619,0,9.944,9.944,0,0,0-13.62,0,9.978,9.978,0,0,0-16.787,7.327,9.984,9.984,0,0,0,2.686,6.843,10.059,10.059,0,0,0,0,13.685,10.059,10.059,0,0,0,0,13.685,10.071,10.071,0,0,0,.237,13.931,9.955,9.955,0,0,0,13.864.238,9.954,9.954,0,0,0,13.864-.238,1.81,1.81,0,0,0,0-2.552,1.79,1.79,0,0,0-2.54,0,6.373,6.373,0,0,1-9.03,0,6.56,6.56,0,0,1-.8-0.983,1.79,1.79,0,0,0-2.988,0,6.5,6.5,0,0,1-.8.983,6.371,6.371,0,0,1-9.029,0,6.425,6.425,0,0,1,.978-9.878,1.81,1.81,0,0,0,0-3,6.425,6.425,0,0,1,0-10.682,1.81,1.81,0,0,0,0-3,6.422,6.422,0,0,1,0-10.682,1.81,1.81,0,0,0,0-3,6.425,6.425,0,0,1-.978-9.878,6.363,6.363,0,0,1,9.029,0,6.53,6.53,0,0,1,.8.984,1.791,1.791,0,0,0,2.988,0,6.469,6.469,0,0,1,.8-0.984,6.371,6.371,0,0,1,9.029,0,6.464,6.464,0,0,1,.8.984,1.791,1.791,0,0,0,2.988,0,6.48,6.48,0,0,1,.8-0.984A6.371,6.371,0,0,1,453.741,498.48Zm-23.587,10.3a1.967,1.967,0,0,0-2.756-.439,1.989,1.989,0,0,0-.436,2.77,1.967,1.967,0,0,0,2.756.439A1.989,1.989,0,0,0,430.154,508.78Zm11.083-.439a1.989,1.989,0,0,0-.436,2.77,1.967,1.967,0,0,0,2.756.439,1.99,1.99,0,0,0,.437-2.77A1.969,1.969,0,0,0,441.237,508.341Zm-11.083,14.038a1.967,1.967,0,0,0-2.756-.439,1.989,1.989,0,0,0-.436,2.77,1.966,1.966,0,0,0,2.756.439A1.989,1.989,0,0,0,430.154,522.379Zm11.083-.439a1.989,1.989,0,0,0-.436,2.77,1.966,1.966,0,0,0,2.756.439,1.99,1.99,0,0,0,.437-2.77A1.969,1.969,0,0,0,441.237,521.94ZM427.4,535.54a1.987,1.987,0,0,0-.436,2.769,1.966,1.966,0,0,0,2.756.439,1.989,1.989,0,0,0,.436-2.77A1.966,1.966,0,0,0,427.4,535.54Zm13.839,0a1.987,1.987,0,0,0-.436,2.769,1.966,1.966,0,0,0,2.756.439,1.99,1.99,0,0,0,.437-2.77A1.968,1.968,0,0,0,441.237,535.54Zm13.839-27.2a1.99,1.99,0,0,0-.436,2.77,1.967,1.967,0,0,0,2.756.439,1.99,1.99,0,0,0,.437-2.77A1.969,1.969,0,0,0,455.076,508.341Zm13.839,0a1.99,1.99,0,0,0-.436,2.77,1.968,1.968,0,0,0,2.756.439,1.989,1.989,0,0,0,.437-2.77A1.969,1.969,0,0,0,468.915,508.341Z" transform="translate(-412 -493)"/>
</svg>
