<svg xmlns="http://www.w3.org/2000/svg" width="84.72" height="72.718" viewBox="0 0 84.72 72.718">
  <metadata><?xpacket begin="﻿" id="W5M0MpCehiHzreSzNTczkc9d"?>
<x:xmpmeta xmlns:x="adobe:ns:meta/" x:xmptk="Adobe XMP Core 5.6-c138 79.159824, 2016/09/14-01:09:01        ">
   <rdf:RDF xmlns:rdf="http://www.w3.org/1999/02/22-rdf-syntax-ns#">
      <rdf:Description rdf:about=""/>
   </rdf:RDF>
</x:xmpmeta>
                                                                                                    
                                                                                                    
                                                                                                    
                                                                                                    
                                                                                                    
                                                                                                    
                                                                                                    
                                                                                                    
                                                                                                    
                                                                                                    
                                                                                                    
                                                                                                    
                                                                                                    
                                                                                                    
                                                                                                    
                                                                                                    
                                                                                                    
                                                                                                    
                                                                                                    
                                                                                                    
                           
<?xpacket end="w"?></metadata>
<defs>
    <style>
      .cls-1 {
        fill: #fff;
        fill-rule: evenodd;
      }
    </style>
  </defs>
  <path id="Фигура_3" data-name="Фигура 3" class="cls-1" d="M1096.68,539.214a14.024,14.024,0,0,0-.38-6.215c-1.59-5.356-6.17-8.958-12.39-9.832-3.02-14-22.82-20.733-23.73-21.035-0.02-.007-0.04-0.007-0.06-0.014a1.7,1.7,0,0,0-.25-0.052c-0.03,0-.07-0.012-0.1-0.015a1.86,1.86,0,0,0-.35,0h0a1.647,1.647,0,0,0-.34.076,0.878,0.878,0,0,0-.1.035,1.517,1.517,0,0,0-.23.108c-0.02.01-.04,0.015-0.06,0.025s-0.03.026-.04,0.036c-0.03.017-.06,0.03-0.09,0.049s-0.08.069-.12,0.1a0.645,0.645,0,0,1-.08.07,1.766,1.766,0,0,0-.39.575,0.415,0.415,0,0,1-.04.1,2.037,2.037,0,0,0-.07.246c0,0.02-.01.038-0.01,0.059-1.59,9.1-3.94,15.47-21.48,20.8-9.22,2.8-15.17,7.661-18.2,14.861-2.89,6.865-3.01,15.74-.37,27.133,0,0.008.01,0.015,0.01,0.023l0.03,0.114c0.03,0.068.05,0.135,0.08,0.2a0.529,0.529,0,0,0,.05.109c0.04,0.06.07,0.119,0.11,0.175a0.617,0.617,0,0,0,.08.1,1.257,1.257,0,0,0,.14.153l0.09,0.084c0.06,0.054.13,0.1,0.19,0.145,0.02,0.013.04,0.029,0.06,0.041a0.147,0.147,0,0,0,.04.02s0,0,.01.007c6.82,3.982,22.13,6.963,37.27,7.252,0.76,0.014,1.55.022,2.38,0.022,11.01,0,28.38-1.471,37.14-9.932C1099.97,560.5,1103.82,552.538,1096.68,539.214Zm-3.83-5.191c1.54,5.186-1.23,11.235-7.22,15.785-6.07,4.613-17.17,7.352-26.97,9.768-11.13,2.743-20.17,4.976-22.57,9.568-6.19-1.12-11.39-2.616-14.63-4.243,1.6-11.418,17.32-15.232,32.53-18.925,15.55-3.772,30.23-7.337,30.32-19.089C1088.63,527.757,1091.76,530.33,1092.85,534.023Zm-29.45-23.641c8.08,10.062,3.17,16.067-1.59,21.9-2.52,3.072-4.9,6-4.71,9.229-1.31.324-2.62,0.644-3.95,0.966-7.99,1.938-16.49,4-23.17,7.4,1.91-8.125,9.52-12.8,16.91-17.336C1055.73,527.116,1064.82,521.541,1063.4,510.382Zm17.32,16.4c0,7.362-8.96,10.877-19.97,13.795,0.3-1.6,1.76-3.469,3.84-6.014,4.54-5.563,11.07-13.544,2.35-25.414C1073.13,512.607,1080.72,518.524,1080.72,526.783Zm-43.31.994c14.1-4.283,19.67-9.459,22.37-17.152,1.21,9.033-6.01,13.47-14.77,18.842-8.52,5.231-18.16,11.146-19.01,22.76a20.129,20.129,0,0,0-6.02,6.184C1017.7,541.649,1023.24,532.082,1037.41,527.777Zm55.58,34.469c-9.85,9.516-34.5,10.215-52.9,7.547,2.92-2.648,11.6-4.792,19.43-6.721,10.13-2.5,21.62-5.332,28.28-10.395a24.429,24.429,0,0,0,7.27-8.512C1098.27,551.742,1097.58,557.814,1092.99,562.246Z" transform="translate(-1015.91 -502.063)"/>
</svg>
