<svg xmlns="http://www.w3.org/2000/svg" width="55.219" height="65" viewBox="0 0 55.219 65">
  <metadata><?xpacket begin="﻿" id="W5M0MpCehiHzreSzNTczkc9d"?>
<x:xmpmeta xmlns:x="adobe:ns:meta/" x:xmptk="Adobe XMP Core 5.6-c138 79.159824, 2016/09/14-01:09:01        ">
   <rdf:RDF xmlns:rdf="http://www.w3.org/1999/02/22-rdf-syntax-ns#">
      <rdf:Description rdf:about=""/>
   </rdf:RDF>
</x:xmpmeta>
                                                                                                    
                                                                                                    
                                                                                                    
                                                                                                    
                                                                                                    
                                                                                                    
                                                                                                    
                                                                                                    
                                                                                                    
                                                                                                    
                                                                                                    
                                                                                                    
                                                                                                    
                                                                                                    
                                                                                                    
                                                                                                    
                                                                                                    
                                                                                                    
                                                                                                    
                                                                                                    
                           
<?xpacket end="w"?></metadata>
<defs>
    <style>
      .cls-1 {
        fill: #fff;
        fill-rule: evenodd;
      }
    </style>
  </defs>
  <path id="Logo" class="cls-1" d="M407.026,57.25a4.311,4.311,0,0,0-1.243-3.032,4.359,4.359,0,1,0-3.176-5.558,4.4,4.4,0,1,0-3.175,5.558,4.312,4.312,0,0,0-1.244,3.032A4.419,4.419,0,0,0,407.026,57.25Zm16.9-14.9c-5.582-10.259,4.368-13.807,4.368-13.807-10.44-1.1-15.221,7.375-11.693,17.481S416.406,66,402.994,70.673c0,0,5.194,12.25,5.039,12.326C440.207,72.281,429.508,52.605,423.926,42.346Zm-21.32,2.679c5.5-10.336,7.133-14.7,15.816-14.47-1.008-5.665-5.427-7.35-10.466-4.747-1.628-6.2-5.35-7.809-5.35-7.809s-3.721,1.608-5.349,7.809c-5.039-2.6-9.458-.919-10.466,4.747C395.474,30.326,397.1,34.69,402.606,45.026Zm-13.994,1c3.528-10.106-1.253-18.579-11.693-17.481,0,0,9.949,3.547,4.367,13.807S365.006,72.281,397.18,83c-0.155-.077,5.039-12.326,5.039-12.326C388.807,66,385.084,56.127,388.612,46.021Z" transform="translate(-375 -18)"/>
</svg>
